  <svg style="display: none;">

    <svg id="vkontakte" viewBox="0 0 24 14" xmlns="http://www.w3.org/2000/svg">
      <path fill-rule="evenodd" clip-rule="evenodd"
        d="M23.45.95c.17-.55 0-.95-.8-.95h-2.62c-.67 0-.98.35-1.14.73 0 0-1.34 3.2-3.23 5.27-.61.6-.89.8-1.22.8-.17 0-.42-.2-.42-.74V.95c0-.66-.18-.95-.74-.95H9.15c-.42 0-.67.3-.67.6 0 .61.95.76 1.05 2.5v3.8c0 .84-.16.99-.5.99-.88 0-3.05-3.21-4.33-6.89-.25-.71-.5-1-1.17-1H.9C.15 0 0 .35 0 .73c0 .68.89 4.07 4.14 8.55C6.32 12.34 9.38 14 12.15 14c1.67 0 1.88-.37 1.88-1v-2.32c0-.73.16-.88.69-.88.38 0 1.05.2 2.61 1.67C19.11 13.22 19.4 14 20.41 14h2.62c.75 0 1.13-.37.91-1.1-.24-.72-1.09-1.77-2.21-3.02-.62-.7-1.54-1.47-1.81-1.86-.4-.49-.28-.7 0-1.14 0 0 3.2-4.43 3.53-5.93Z"
        fill="currentColor" />
    </svg>

    <svg id="telegramm" viewBox="0 0 22 18" xmlns="http://www.w3.org/2000/svg">
      <path
        d="m21.44 1.62-3.17 14.95c-.24 1.05-.86 1.31-1.75.82l-4.83-3.56-2.33 2.24c-.25.26-.47.47-.97.47l.35-4.91 8.95-8.09c.39-.35-.09-.54-.6-.2L6.01 10.32 1.26 8.82C.22 8.5.21 7.8 1.48 7.3L20.1.11c.87-.32 1.62.2 1.34 1.51Z"
        fill="currentColor" />
    </svg>

    <svg id="you_tube" viewBox="0 0 20 14" xmlns="http://www.w3.org/2000/svg">
      <path
       d="M17.18 0H2.81C1.31 0 0 1.3 0 2.8v8.3C0 12.7 1.3 14 2.81 14h14.37A2.8 2.8 0 0 0 20 11.2V2.8c.1-1.5-1.2-2.8-2.8-2.8ZM7.03 10.4V3.6L13.87 7l-6.84 3.4Z"
       fill="currentColor" />
    </svg>

    <svg id="htmlacademy" viewBox="0 0 24 29" xmlns="http://www.w3.org/2000/svg">
      <path
        d="M12.13 0h-.09L0 1.2v21L12.04 29 24 22.2v-21L12.13 0ZM22.3 10.29 12.04 4.51v-.09h-.08l-.1-.08v.08L1.7 10.3V2.64l10.26-1.02L22.3 2.64v7.65Zm-10.34-4.5 10.26 5.7-4.02 2.2-6.33-3.57v1.2l5.26 2.97-.8.42-4.46-2.55v1.2l3.39 1.95-.72.42-2.67-1.53v1.2l1.7.93-1.61.93-10.18-5.7 10.18-5.78ZM1.7 12.83l10.17 5.78v.86l-7.05-4v1.19l7.14 4.08v.94l-7.14-4v1.19l7.14 4.08 7.22-4.17v-4.42l3.04-1.7v8.5l-10.26 5.87L1.7 21.26v-8.42Z"
        fill="currentColor" />
    </svg>

  </svg>
